<svg xmlns="http://www.w3.org/2000/svg" xmlns:xlink="http://www.w3.org/1999/xlink" fill="none" version="1.1" width="33" height="33" viewBox="0 0 33 33"><defs><filter id="master_svg0_36_70159" filterUnits="objectBoundingBox" color-interpolation-filters="sRGB" x="-0.7692307692307693" y="-0.6153846153846154" width="2.5384615384615383" height="2.5384615384615383"><feFlood flood-opacity="0" result="BackgroundImageFix"/><feColorMatrix in="SourceAlpha" type="matrix" values="0 0 0 0 0 0 0 0 0 0 0 0 0 0 0 0 0 0 127 0"/><feOffset dy="2" dx="0"/><feGaussianBlur stdDeviation="2.5"/><feColorMatrix type="matrix" values="0 0 0 0 0.667512059211731 0 0 0 0 0.5919458270072937 0 0 0 0 0.863095223903656 0 0 0 1 0"/><feBlend mode="normal" in2="BackgroundImageFix" result="effect1_dropShadow"/><feBlend mode="normal" in="SourceGraphic" in2="effect1_dropShadow" result="shape"/></filter></defs><path d="M15,19.5C15,20.328426999999998,15.671572699999999,21,16.5,21C17.3284273,21,18,20.328426999999998,18,19.5L18,16L21.5,16C22.328426999999998,16,23,15.328427300000001,23,14.5C23,13.671572699999999,22.328426999999998,13,21.5,13L18,13L18,9.5C18,8.67157269,17.3284273,8,16.5,8C15.671572699999999,8,15,8.67157269,15,9.5L15,13L11.5,13C10.67157269,13,10,13.671572699999999,10,14.5C10,15.328427300000001,10.67157269,16,11.5,16L15,16L15,19.5Z" fill-rule="evenodd" fill="#FFFFFF" fill-opacity="1" filter="url(#master_svg0_36_70159)"/></svg>