<svg xmlns="http://www.w3.org/2000/svg" xmlns:xlink="http://www.w3.org/1999/xlink" fill="none" version="1.1" width="20" height="20" viewBox="0 0 20 20"><defs><clipPath id="master_svg0_78_59474"><rect x="0" y="0" width="20" height="20" rx="0"/></clipPath></defs><g clip-path="url(#master_svg0_78_59474)"><path d="M1.6666666269302368,9.99999934088379C1.6666666269302368,10.46023663088379,2.039762646930237,10.833332630883788,2.499999996930237,10.833332630883788L9.166666126930238,10.833332630883788C9.626903626930236,10.833332630883788,9.999999626930236,10.46023663088379,9.999999626930236,9.99999934088379C9.999999626930236,9.53976205088379,9.626903626930236,9.166666030883789,9.166666126930238,9.166666030883789L2.499999936930237,9.166666030883789C2.039762646930237,9.166666030883789,1.6666666269302368,9.53976205088379,1.6666666269302368,9.99999934088379Z" fill="#868D9C" fill-opacity="1"/><path d="M1.6666666269302368,17.49999934088379C1.6666666269302368,17.960236630883788,2.039762646930237,18.33333263088379,2.499999996930237,18.33333263088379L9.166666126930238,18.33333263088379C9.626903626930236,18.33333263088379,9.999999626930236,17.960236630883788,9.999999626930236,17.49999934088379C9.999999626930236,17.039762050883787,9.626903626930236,16.66666603088379,9.166666126930238,16.66666603088379L2.499999936930237,16.66666603088379C2.039762646930237,16.66666603088379,1.6666666269302368,17.039762050883787,1.6666666269302368,17.49999934088379Z" fill="#868D9C" fill-opacity="1"/><path d="M1.6666666269302368,2.499999936930237C1.6666666269302368,2.9602372269302366,2.039762646930237,3.333333226930237,2.499999996930237,3.333333226930237L17.499999626930236,3.333333226930237C17.960236626930236,3.333333226930237,18.333332626930236,2.9602372269302366,18.333332626930236,2.499999936930237C18.333332626930236,2.039762646930237,17.960236626930236,1.6666666269302368,17.499998626930235,1.6666666269302368L2.499999936930237,1.6666666269302368C2.039762646930237,1.6666666269302368,1.6666666269302368,2.039762646930237,1.6666666269302368,2.499999936930237Z" fill="#868D9C" fill-opacity="1"/><path d="M15.881046099999999,17.86811876C16.295481,17.37729374,17.0378528,17.37729374,17.452288199999998,17.86811876C17.452288199999998,17.86811876,20.5776606,21.569571,20.5776606,21.569571C21.1605663,22.2599206,20.6824446,23.333333,19.7920394,23.333333C19.7920394,23.333333,13.5412945,23.333333,13.5412945,23.333333C12.65088983,23.333333,12.1727663,22.2599206,12.75567302,21.569571C12.75567302,21.569571,15.881046099999999,17.86811876,15.881046099999999,17.86811876Z" fill="#868D9C" fill-opacity="1" transform="matrix(0,-1,1,0,-5,30)"/></g></svg>