<?xml version="1.0" standalone="no"?><!DOCTYPE svg PUBLIC "-//W3C//DTD SVG 1.1//EN" "http://www.w3.org/Graphics/SVG/1.1/DTD/svg11.dtd"><svg t="1769674791569" class="icon" viewBox="0 0 1024 1024" version="1.1" xmlns="http://www.w3.org/2000/svg" p-id="8985" xmlns:xlink="http://www.w3.org/1999/xlink" width="256" height="256"><path d="M480.187733 26.487467a117.077333 117.077333 0 0 1 115.165867 137.147733l-1.979733 9.0112 235.588266 130.935467 7.168-5.9392c17.6128-13.5168 38.775467-21.845333 61.303467-23.7568l9.693867-0.4096a117.077333 117.077333 0 1 1-18.6368 232.721066l-8.328534-1.706666-183.7056 297.3696 5.7344 6.826666c13.789867 17.749333 22.254933 39.185067 24.1664 61.917867l0.4096 9.8304c0 64.580267-52.4288 117.077333-116.9408 117.077333-64.443733 0-116.872533-52.565333-116.872533-117.077333l0.136533-4.164267-170.666666-42.666666-3.140267 5.5296c-19.6608 30.856533-52.8384 51.2-89.975467 53.930666l-8.669866 0.341334a117.077333 117.077333 0 0 1-62.122667-216.2688l5.666133-3.2768-40.072533-168.5504-7.236267 0.273066A117.077333 117.077333 0 0 1 0.273067 396.4928L0 388.5056c0-64.580267 52.4288-117.077333 116.872533-117.077333 32.085333 0 62.122667 13.1072 83.831467 35.498666l3.072 3.413334L372.736 189.713067l-3.003733-7.645867a116.258133 116.258133 0 0 1-6.075734-28.535467l-0.4096-9.898666c0-64.580267 52.4288-117.077333 116.872534-117.077334z m129.706667 792.439466a60.757333 60.757333 0 0 0-37.341867 12.834134 61.166933 61.166933 0 0 0-23.688533 41.710933l-0.341333 6.9632a61.44 61.44 0 0 0 61.303466 61.508267 61.508267 61.508267 0 0 0 0-123.016534z m-389.188267-104.106666a61.508267 61.508267 0 0 0 0 123.016533 61.44 61.44 0 0 0 48.878934-98.5088l-4.573867-5.393067a61.371733 61.371733 0 0 0-14.5408-11.400533l-6.075733-2.935467a60.757333 60.757333 0 0 0-23.688534-4.778666zM390.485333 619.383467L315.392 707.925333l4.778667 7.099734c9.693867 15.701333 15.5648 33.3824 17.066666 51.882666l0.341334 9.4208-0.2048 4.983467 170.257066 42.530133 4.437334-7.3728c5.256533-7.9872 11.4688-15.428267 18.568533-21.9136l6.621867-5.7344-67.584-157.559466a107.178667 107.178667 0 0 1-15.496534 2.116266l-7.714133 0.273067a116.053333 116.053333 0 0 1-48.128-10.376533l-7.714133-3.8912zM804.181333 445.781333l-241.2544 62.532267 0.2048 1.8432 0.2048 6.417067c0 32.9728-13.9264 64.170667-37.819733 86.152533l-5.597867 4.778667 67.7888 157.969066 7.236267-1.160533c2.4576-0.341333 4.983467-0.546133 7.509333-0.682667l7.509334-0.273066c10.922667 0 21.845333 1.501867 32.085333 4.5056l9.557333 3.208533 179.950934-291.362133-5.3248-4.778667a117.828267 117.828267 0 0 1-17.954134-22.050133l-4.096-7.099734z m-589.960533 7.3728l-4.164267 6.007467c-7.509333 9.898667-16.520533 18.568533-26.692266 25.668267l-7.168 4.5056 40.482133 169.984 4.096-0.068267c15.633067 0 31.061333 3.140267 45.397333 9.216L273.066667 671.812267l76.458666-89.9072-4.9152-7.7824a116.3264 116.3264 0 0 1-14.677333-47.377067l-0.4096-10.24c0-3.4816 0.136533-7.031467 0.477867-10.581333l1.365333-9.6256-117.213867-43.144534z m232.2432 1.911467l-3.413333 0.068267-3.413334 0.341333a60.893867 60.893867 0 0 0-41.233066 22.9376l-4.096 5.802667a60.962133 60.962133 0 0 0-7.304534 17.271466l-1.092266 5.256534a61.0304 61.0304 0 0 0 28.672 62.2592 60.689067 60.689067 0 0 0 46.421333 7.236266l6.826667-2.048a60.552533 60.552533 0 0 0 16.1792-9.079466l5.12-4.5056a61.44 61.44 0 0 0 18.158933-51.6096l-1.365333-6.9632a60.757333 60.757333 0 0 0-7.031467-17.2032l-3.8912-5.7344a61.2352 61.2352 0 0 0-29.4912-21.026134l-6.5536-1.706666a60.689067 60.689067 0 0 0-12.4928-1.365334z m121.514667-234.427733l-4.096 4.642133c-16.110933 16.452267-36.727467 27.989333-59.392 32.768l-6.621867 1.024L484.693333 406.186667l7.236267 2.730666c19.797333 8.465067 36.864 22.1184 49.288533 39.594667l4.5056 6.826667 244.5312-63.351467v-1.365333c0-12.424533 1.979733-24.644267 5.7344-36.181334l2.116267-5.870933L567.978667 220.637867z m339.217066 108.407466a61.44 61.44 0 0 0-61.371733 60.893867l0.2048 3.2768a61.303467 61.303467 0 0 0 122.538667-2.594133 61.44 61.44 0 0 0-61.371734-61.576534zM116.872533 326.997333a61.508267 61.508267 0 1 0 10.376534 122.129067l2.935466-0.682667 3.754667-1.8432 3.6864-1.2288 2.321067-0.4096 5.461333-2.184533a60.962133 60.962133 0 0 0 19.729067-16.384l3.618133-5.188267 3.413333-6.144a60.689067 60.689067 0 0 0 5.393067-18.0224l0.477867-4.096 0.2048-4.437333a61.44 61.44 0 0 0-61.371734-61.508267z m288.3584-93.7984L229.853867 358.536533c1.774933 6.826667 2.935467 13.312 3.413333 19.933867l0.477867 10.0352c0 2.594133-0.068267 5.188267-0.273067 7.7824l-0.477867 4.573867 120.763734 44.4416 5.461333-6.5536a116.736 116.736 0 0 1 62.600533-36.522667l7.509334-1.365333 13.175466-146.6368-7.168-2.6624a117.009067 117.009067 0 0 1-24.029866-13.5168l-6.075734-4.846934z m74.9568-151.1424a61.508267 61.508267 0 0 0 0 123.016534l6.7584-0.4096 6.280534-1.024a61.508267 61.508267 0 0 0-12.970667-121.514667z" fill="#384BF7" p-id="8986"></path></svg>