<svg xmlns="http://www.w3.org/2000/svg" xmlns:xlink="http://www.w3.org/1999/xlink" fill="none" version="1.1" width="20" height="20" viewBox="0 0 20 20"><defs><clipPath id="master_svg0_78_59522"><rect x="0" y="0" width="20" height="20" rx="0"/></clipPath></defs><g clip-path="url(#master_svg0_78_59522)"><path d="M10,9.99999934088379C10,10.46023663088379,10.37309602,10.833332630883788,10.83333337,10.833332630883788L17.4999995,10.833332630883788C17.960237,10.833332630883788,18.333333,10.46023663088379,18.333333,9.99999934088379C18.333333,9.53976205088379,17.960237,9.166666030883789,17.4999995,9.166666030883789L10.83333331,9.166666030883789C10.37309602,9.166666030883789,10,9.53976205088379,10,9.99999934088379Z" fill="#868D9C" fill-opacity="1"/><path d="M10,17.49999934088379C10,17.960236630883788,10.37309602,18.33333263088379,10.83333337,18.33333263088379L17.4999995,18.33333263088379C17.960237,18.33333263088379,18.333333,17.960236630883788,18.333333,17.49999934088379C18.333333,17.039762050883787,17.960237,16.66666603088379,17.4999995,16.66666603088379L10.83333331,16.66666603088379C10.37309602,16.66666603088379,10,17.039762050883787,10,17.49999934088379Z" fill="#868D9C" fill-opacity="1"/><path d="M1.6666666269302368,2.499999936930237C1.6666666269302368,2.9602372269302366,2.039762646930237,3.333333226930237,2.499999996930237,3.333333226930237L17.499999626930236,3.333333226930237C17.960236626930236,3.333333226930237,18.333332626930236,2.9602372269302366,18.333332626930236,2.499999936930237C18.333332626930236,2.039762646930237,17.960236626930236,1.6666666269302368,17.499998626930235,1.6666666269302368L2.499999936930237,1.6666666269302368C2.039762646930237,1.6666666269302368,1.6666666269302368,2.039762646930237,1.6666666269302368,2.499999936930237Z" fill="#868D9C" fill-opacity="1"/><path d="M10.881046099999999,17.86811876C11.295481,17.37729374,12.0378528,17.37729374,12.4522882,17.86811876C12.4522882,17.86811876,15.5776606,21.569571,15.5776606,21.569571C16.1605663,22.2599206,15.6824446,23.333333,14.7920394,23.333333C14.7920394,23.333333,8.5412945,23.333333,8.5412945,23.333333C7.65088983,23.333333,7.1727663,22.2599206,7.75567302,21.569571C7.75567302,21.569571,10.881046099999999,17.86811876,10.881046099999999,17.86811876Z" fill="#868D9C" fill-opacity="1" transform="matrix(0,-1,-1,0,25,25)"/></g></svg>