<svg xmlns="http://www.w3.org/2000/svg" xmlns:xlink="http://www.w3.org/1999/xlink" fill="none" version="1.1" width="20" height="20" viewBox="0 0 20 20">
  <defs>
    <linearGradient id="aiGradient" x1="0%" y1="0%" x2="100%" y2="100%">
      <stop offset="0%" style="stop-color:#5983ff;stop-opacity:1" />
      <stop offset="100%" style="stop-color:#3772ff;stop-opacity:1" />
    </linearGradient>
  </defs>
  <g>
    <!-- 机器人头部 -->
    <path d="M3.5 6H16.5C17.0523 6 17.5 5.55228 17.5 5V4C17.5 3.44772 17.0523 3 16.5 3H3.5C2.94772 3 2.5 3.44772 2.5 4V5C2.5 5.55228 2.94772 6 3.5 6Z" fill="url(#aiGradient)"/>
    <!-- 天线 -->
    <path d="M10 3V1" stroke="currentColor" stroke-width="1.5" stroke-linecap="round"/>
    <circle cx="10" cy="1" r="1" fill="currentColor"/>
    <!-- 身体 -->
    <path d="M3.5 6H16.5C17.0523 6 17.5 6.44772 17.5 7V13C17.5 13.5523 17.0523 14 16.5 14H3.5C2.94772 14 2.5 13.5523 2.5 13V7C2.5 6.44772 2.94772 6 3.5 6Z" fill="currentColor" fill-opacity="0.1"/>
    <path d="M2.5 7V13C2.5 13.5523 2.94772 14 3.5 14H16.5C17.0523 14 17.5 13.5523 17.5 13V7C17.5 6.44772 17.0523 6 16.5 6H3.5C2.94772 6 2.5 6.44772 2.5 7Z" stroke="currentColor" stroke-width="1.5"/>
    <!-- 左眼睛 -->
    <ellipse cx="7" cy="9.5" rx="2" ry="2" fill="currentColor"/>
    <circle cx="7.5" cy="9" r="0.6" fill="#fff"/>
    <!-- 右眼睛 -->
    <ellipse cx="13" cy="9.5" rx="2" ry="2" fill="currentColor"/>
    <circle cx="13.5" cy="9" r="0.6" fill="#fff"/>
    <!-- 嘴巴 -->
    <path d="M8 12C9 12 11 12 12 12" stroke="currentColor" stroke-width="1.5" stroke-linecap="round"/>
    <!-- 领结 -->
    <path d="M8 14L6 15.5L8 17L8 14Z" fill="#5983ff"/>
    <path d="M12 14L14 15.5L12 17L12 14Z" fill="#5983ff"/>
    <ellipse cx="10" cy="15.5" rx="2" ry="1" fill="#5983ff"/>
  </g>
</svg>