<svg xmlns="http://www.w3.org/2000/svg" xmlns:xlink="http://www.w3.org/1999/xlink" fill="none" version="1.1" width="20"
     height="20" viewBox="0 0 20 20">
  <defs>
    <clipPath id="master_svg0_145_29692">
      <rect x="0" y="0" width="20" height="20" rx="0"/>
    </clipPath>
  </defs>
  <g clip-path="url(#master_svg0_145_29692)">
    <path
      d="M0,14.1667073334375C0,13.7064700434375,0.37309602,13.3333740234375,0.83333331,13.3333740234375L3.3333333,13.3333740234375C3.793571,13.3333740234375,4.1666665,13.7064700434375,4.1666665,14.1667073334375C4.1666665,14.6269445234375,3.793571,15.0000406234375,3.3333333,15.0000406234375L0.83333331,15.0000406234375C0.37309602,15.0000406234375,0,14.6269445234375,0,14.1667073334375Z"
      fill="currentColor" fill-opacity="1" transform="matrix(0,-1,1,0,-13.3333740234375,13.3333740234375)"/>
    <path
      d="M7.276611328125,3.33333331C7.276611328125,2.87309602,7.649707348125,2.5,8.109944638125,2.5L10.609944628125,2.5C11.070182328125,2.5,11.443277828125,2.87309602,11.443277828125,3.33333331C11.443277828125,3.7935705,11.070182328125,4.1666666,10.609944628125,4.1666666L8.109944638125,4.1666666C7.649707348125,4.1666666,7.276611328125,3.7935705,7.276611328125,3.33333331Z"
      fill="currentColor" fill-opacity="1"
      transform="matrix(0.4999999403953552,0.866025447845459,-0.866025447845459,0.4999999403953552,5.803369717395981,-5.051730435225181)"/>
    <path
      d="M12.083251953125,7.7751057709375C12.083251953125,7.3148684809375,12.456347973125,6.9417724609375,12.916585263125,6.9417724609375L15.416585253125,6.9417724609375C15.876822953125,6.9417724609375,16.249918453124998,7.3148684809375,16.249918453124998,7.7751057709375C16.249918453124998,8.2353429609375,15.876822953125,8.6084390609375,15.416585253125,8.6084390609375L12.916585263125,8.6084390609375C12.456347973125,8.6084390609375,12.083251953125,8.2353429609375,12.083251953125,7.7751057709375Z"
      fill="currentColor" fill-opacity="1"
      transform="matrix(0.4999999701976776,-0.866025447845459,-0.866025447845459,-0.4999999701976776,12.053377940996143,20.877062168659904)"/>
    <path
      d="M18.333251953125,14.1667073334375C18.333251953125,13.7064700434375,18.706347973125,13.3333740234375,19.166585263125,13.3333740234375L21.666585253125,13.3333740234375C22.126822953125,13.3333740234375,22.499918453124998,13.7064700434375,22.499918453124998,14.1667073334375C22.499918453124998,14.6269445234375,22.126822953125,15.0000406234375,21.666585253125,15.0000406234375L19.166585263125,15.0000406234375C18.706347973125,15.0000406234375,18.333251953125,14.6269445234375,18.333251953125,14.1667073334375Z"
      fill="currentColor" fill-opacity="1" transform="matrix(0,-1,1,0,4.9998779296875,31.6666259765625)"/>
    <g>
      <path
        d="M2.5,14.997406L2.5,7.502594Q2.499989271164,6.4689926,3.21996051,5.73801672Q3.9468750999999997,5.000012715742,4.984385,5L15.015615,5Q16.053141,4.999994436942,16.780039000000002,5.73801672Q17.5,6.4689986,17.5,7.502594L17.5,14.997406Q17.5,16.031004,16.780039000000002,16.761983Q16.053138,17.499991,15.015615,17.5L4.984385,17.5Q3.9468765,17.5,3.21996051,16.761983Q2.499988675117,16.031008999999997,2.5,14.997406ZM8.333252,11.25Q8.333252,11.311409000000001,8.3272328,11.3725214Q8.321213700000001,11.4336343,8.309233200000001,11.493862199999999Q8.297253099999999,11.5540915,8.2794271,11.6128554Q8.2616014,11.6716199,8.238101,11.7283535Q8.214601,11.7850881,8.1856532,11.8392453Q8.1567054,11.8934031,8.1225882,11.9444618Q8.0884719,11.995521499999999,8.0495148,12.0429907Q8.0105577,12.0904603,7.967135,12.1338825Q7.9237127,12.1773052,7.8762436,12.2162623Q7.828774,12.255219499999999,7.7777143,12.289335699999999Q7.726655,12.3234529,7.6724973,12.3524008Q7.6183395,12.381348599999999,7.5616055,12.404848099999999Q7.5048714,12.428349,7.4461074,12.4461751Q7.3873434,12.4640012,7.3271146,12.4759808Q7.2668858,12.4879618,7.2057734,12.4939809Q7.1446605,12.5,7.083252,12.5Q7.0218434,12.5,6.9607306,12.4939809Q6.8996172,12.4879618,6.8393884,12.4759808Q6.77916,12.4640012,6.720396,12.4461751Q6.6616316,12.428349,6.604897,12.404848099999999Q6.5481634,12.381348599999999,6.494005700000001,12.3524013Q6.4398482,12.3234529,6.3887887,12.289335699999999Q6.3377295,12.255219499999999,6.290260099999999,12.216262799999999Q6.2427907000000005,12.1773057,6.1993682,12.133883Q6.155946,12.090460799999999,6.1169887,12.0429912Q6.0780315,11.995521499999999,6.0439146,11.9444618Q6.009798,11.8934031,5.9808502,11.8392453Q5.9519024,11.7850881,5.9284022,11.7283535Q5.9049025,11.6716199,5.8870764,11.6128559Q5.8692505,11.5540915,5.85727,11.4938626Q5.8452902,11.4336348,5.8392713,11.3725214Q5.8332522,11.311409000000001,5.833252,11.25Q5.8332522,11.188591500000001,5.8392710999999995,11.127478100000001Q5.8452902,11.0663652,5.85727,11.006136399999999Q5.8692505,10.9459081,5.8870766,10.8871441Q5.9049025,10.8283796,5.9284022,10.7716451Q5.9519024,10.7149115,5.98085,10.6607537Q6.009797799999999,10.6065969,6.0439143,10.5555372Q6.0780313,10.504478500000001,6.1169887,10.4570088Q6.1559458,10.409539200000001,6.199368,10.3661165Q6.2427907000000005,10.3226943,6.290259799999999,10.283737200000001Q6.3377292,10.244779600000001,6.3887882000000005,10.2106628Q6.4398479,10.1765466,6.4940054,10.1475987Q6.5481634,10.118650899999999,6.604897,10.095150499999999Q6.6616316,10.0716505,6.720396,10.0538249Q6.7791605,10.0359988,6.8393888,10.0240183Q6.8996177,10.0120382,6.9607306,10.0060196Q7.0218434,10.000000499999999,7.083252,10Q7.1446605,10.000000499999999,7.2057734,10.0060196Q7.2668858,10.0120382,7.3271146,10.0240183Q7.3873434,10.0359988,7.4461074,10.0538244Q7.5048714,10.0716505,7.5616055,10.095150499999999Q7.6183395,10.118650899999999,7.6724973,10.1475987Q7.726655,10.1765466,7.7777138,10.2106628Q7.8287735,10.244779600000001,7.8762431,10.283737200000001Q7.9237127,10.3226943,7.967135,10.3661165Q8.0105577,10.409539200000001,8.0495148,10.4570088Q8.0884719,10.504478500000001,8.1225882,10.5555372Q8.156704900000001,10.6065969,8.1856527,10.6607542Q8.2146006,10.7149115,8.2381005,10.7716455Q8.261600999999999,10.8283796,8.2794271,10.8871441Q8.297253099999999,10.9459085,8.309233200000001,11.0061369Q8.321213700000001,11.0663657,8.3272328,11.1274786Q8.333252,11.188591500000001,8.333252,11.25ZM12.916748,12.5Q12.978157,12.5,13.039269,12.4939809Q13.100382,12.4879618,13.16061,12.4759808Q13.220839,12.4640012,13.279604,12.4461751Q13.338367,12.428349,13.395102,12.404848099999999Q13.451837,12.381348599999999,13.505994,12.3524013Q13.560151,12.3234529,13.611209,12.289335699999999Q13.66227,12.255219499999999,13.709739,12.216262799999999Q13.757209,12.1773057,13.800631,12.133883Q13.844053,12.090460799999999,13.883011,12.0429912Q13.921968,11.995521499999999,13.956083,11.9444618Q13.990201,11.8934031,14.01915,11.8392453Q14.048098,11.7850881,14.071596,11.7283535Q14.095097,11.6716199,14.112923,11.6128559Q14.130749,11.5540915,14.142729,11.4938626Q14.154711,11.4336348,14.16073,11.3725214Q14.166749,11.311409000000001,14.166748,11.25Q14.166749,11.188591500000001,14.16073,11.127478100000001Q14.154711,11.0663652,14.142729,11.006136399999999Q14.130749,10.9459081,14.112924,10.8871441Q14.095098,10.8283796,14.071597,10.7716451Q14.048098,10.7149115,14.01915,10.6607537Q13.990202,10.6065969,13.956084,10.5555372Q13.921968,10.504478500000001,13.883011,10.4570088Q13.844053,10.409539200000001,13.800631,10.3661165Q13.757209,10.3226943,13.70974,10.283737200000001Q13.66227,10.244779600000001,13.61121,10.2106628Q13.560152,10.1765466,13.505994,10.1475987Q13.451837,10.118650899999999,13.395102,10.095150499999999Q13.338367,10.0716505,13.279604,10.0538249Q13.220839,10.0359988,13.16061,10.0240183Q13.100382,10.0120382,13.03927,10.0060196Q12.978157,10.000000499999999,12.916748,10Q12.85534,10.000000499999999,12.794228,10.0060196Q12.733114,10.0120382,12.672885,10.0240183Q12.612657,10.0359988,12.553892,10.0538244Q12.4951277,10.0716505,12.4383926,10.095150499999999Q12.3816586,10.118650899999999,12.3275013,10.1475987Q12.273344,10.1765466,12.2222843,10.2106628Q12.1712265,10.244779600000001,12.1237564,10.283737200000001Q12.0762863,10.3226943,12.0328636,10.3661165Q11.9894409,10.409539200000001,11.9504843,10.4570088Q11.9115276,10.504478500000001,11.8774099,10.5555372Q11.8432941,10.6065969,11.8143463,10.6607542Q11.7853985,10.7149115,11.761898,10.7716455Q11.7383995,10.8283796,11.7205734,10.8871441Q11.7027473,10.9459085,11.6907654,11.0061369Q11.6787863,11.0663657,11.6727676,11.1274786Q11.666748,11.188591500000001,11.666748,11.25Q11.666748,11.311409000000001,11.6727676,11.3725214Q11.6787863,11.4336343,11.6907654,11.493862199999999Q11.7027464,11.5540915,11.7205725,11.6128554Q11.7383976,11.6716199,11.7618971,11.7283535Q11.7853985,11.7850881,11.8143463,11.8392453Q11.8432932,11.8934031,11.877409,11.9444618Q11.9115267,11.995521499999999,11.9504843,12.0429907Q11.9894409,12.0904603,12.0328636,12.1338825Q12.0762863,12.1773052,12.1237564,12.2162623Q12.1712265,12.255219499999999,12.2222843,12.289335699999999Q12.273344,12.3234529,12.3275013,12.3524008Q12.3816586,12.381348599999999,12.4383926,12.404848099999999Q12.4951277,12.428349,12.553892,12.4461751Q12.612656,12.4640012,12.672884,12.4759808Q12.733114,12.4879618,12.794228,12.4939809Q12.85534,12.5,12.916748,12.5Z"
        fill-rule="evenodd" fill="currentColor" fill-opacity="1"/>
    </g>
  </g>
</svg>