<svg xmlns="http://www.w3.org/2000/svg" xmlns:xlink="http://www.w3.org/1999/xlink" fill="none" version="1.1" width="20"
     height="20" viewBox="0 0 20 20">
  <defs>
    <clipPath id="master_svg0_16_03265">
      <rect x="0" y="0" width="20" height="20" rx="0"/>
    </clipPath>
  </defs>
  <g clip-path="url(#master_svg0_16_03265)">
    <g>
      <path
        d="M5.83331301171875,3.333252153125L5.83331301171875,4.166748053125L4.166687211718751,4.166748053125C2.7859752117187497,4.166748053125,1.66668701171875,5.286036453125,1.66668701171875,6.666748053125L1.66668701171875,8.333414553125L9.96918201171875,8.333414553125Q9.98458001171875,8.333251953125,9.99997901171875,8.333251953125Q10.01537801171875,8.333251953125,10.03077601171875,8.333414553125L18.33335301171875,8.333414553125L18.33335301171875,6.666748053125C18.33335301171875,5.286036453125,17.21406601171875,4.166748053125,15.83335301171875,4.166748053125L14.16664601171875,4.166748053125L14.16664601171875,3.333252153125Q14.16664601171875,2.297717953125,13.43441401171875,1.565485003125Q12.70218101171875,0.833251953125,11.66664601171875,0.833251953125L8.33331301171875,0.833251953125Q7.29777911171875,0.833251953125,6.56554601171875,1.565485003125Q5.83331301171875,2.297717953125,5.83331301171875,3.333252153125ZM12.49997901171875,4.166748053125L12.49997901171875,3.333252153125Q12.49997901171875,2.988074253125,12.25590101171875,2.743996253125Q12.01182401171875,2.499918553125,11.66664601171875,2.499918553125L8.33331301171875,2.499918553125Q7.98813481171875,2.499918553125,7.74405721171875,2.743996253125Q7.49997951171875,2.988073853125,7.49997951171875,3.333252153125L7.49997951171875,4.166748053125L12.49997901171875,4.166748053125ZM1.66668701171875,9.999999953125L7.36470941171875,9.999999953125Q7.08331301171875,10.593283653125,7.08331301171875,11.249917953125Q7.08331301171875,11.393204953125,7.09735771171875,11.535800953125Q7.11140251171875,11.678397953125,7.13935561171875,11.818930953125Q7.16730971171875,11.959464953125,7.20890331171875,12.096581953125Q7.25049731171875,12.233697953125,7.30533031171875,12.366076953125Q7.36016371171875,12.498457953125,7.42770861171875,12.624825953125Q7.49525361171875,12.751192953125,7.57485911171875,12.870330953125Q7.65446571171875,12.989469953125,7.74536561171875,13.100231953125Q7.83626561171875,13.210994953125,7.93758391171875,13.312312953125Q8.03890321171875,13.413630953125,8.14966491171875,13.504531953125Q8.26042701171875,13.595430953125,8.379565211718749,13.675035953125Q8.49870391171875,13.754642953125,8.62507201171875,13.822186953125Q8.75143911171875,13.889731953125,8.88381811171875,13.944564953125Q9.01619811171875,13.999398953125,9.15331551171875,14.040993953125Q9.29043201171875,14.082587953125,9.43096491171875,14.110540953125Q9.57149931171875,14.138495953125,9.71409611171875,14.152539953125Q9.85669331171875,14.166584953125,9.99997901171875,14.166584953125Q10.14326571171875,14.166584953125,10.28586201171875,14.152539953125Q10.42845921171875,14.138495953125,10.56899161171875,14.110541953125Q10.70952611171875,14.082588953125,10.84664341171875,14.040994953125Q10.98375891171875,13.999399953125,11.11613841171875,13.944565953125Q11.24851801171875,13.889731953125,11.37488551171875,13.822186953125Q11.50125311171875,13.754642953125,11.62039091171875,13.675036953125Q11.73953101171875,13.595431953125,11.85029201171875,13.504531953125Q11.96105501171875,13.413630953125,12.06237301171875,13.312312953125Q12.16369201171875,13.210994953125,12.25459301171875,13.100231953125Q12.34549301171875,12.989469953125,12.42509801171875,12.870330953125Q12.50470401171875,12.751191953125,12.57224801171875,12.624824953125Q12.63979301171875,12.498456953125,12.69462701171875,12.366076953125Q12.74946001171875,12.233697953125,12.79105501171875,12.096580953125Q12.83264901171875,11.959464953125,12.86060201171875,11.818931953125Q12.88855701171875,11.678397953125,12.90260201171875,11.535801953125Q12.91664701171875,11.393204953125,12.91664601171875,11.249917953125Q12.91664601171875,10.593283653125,12.63524901171875,9.999999953125L18.33335301171875,9.999999953125L18.33335301171875,15.833331953125C18.33335301171875,17.214046953125,17.21406601171875,18.333331953125,15.83335301171875,18.333331953125L4.166687211718751,18.333331953125C2.7859752117187497,18.333331953125,1.66668701171875,17.214046953125,1.66668701171875,15.833332953125L1.66668701171875,9.999999953125ZM10.91664601171875,11.249917953125Q10.91664501171875,11.159633953125,10.89903161171875,11.071084953125Q10.88141821171875,10.982535953125,10.84686851171875,10.899123953125Q10.81231881171875,10.815712953125,10.76215931171875,10.740644453125Q10.71199991171875,10.665576953125,10.64816001171875,10.601736053125Q10.58431911171875,10.537896153125,10.50925061171875,10.487737653125Q10.43418221171875,10.437578153125,10.35077091171875,10.403028453125Q10.26735971171875,10.368478753125,10.17881111171875,10.350865353125Q10.09026241171875,10.333251953125,9.99997901171875,10.333251953125Q9.90969471171875,10.333251953125,9.82114601171875,10.350865353125Q9.73259731171875,10.368478753125,9.64918521171875,10.403028453125Q9.56577401171875,10.437578153125,9.49070601171875,10.487736653125Q9.41563801171875,10.537896153125,9.35179801171875,10.601736053125Q9.28795721171875,10.665576953125,9.23779871171875,10.740644453125Q9.18763921171875,10.815712953125,9.15308951171875,10.899123953125Q9.118539311718749,10.982535953125,9.10092591171875,11.071084953125Q9.08331251171875,11.159633953125,9.08331301171875,11.249917953125Q9.08331251171875,11.340200953125,9.10092591171875,11.428749953125Q9.118539311718749,11.517298953125,9.15308951171875,11.600709953125Q9.18763921171875,11.684120953125,9.23779821171875,11.759189953125Q9.28795721171875,11.834256953125,9.35179801171875,11.898097953125Q9.41563801171875,11.961938953125,9.49070601171875,12.012095953125Q9.56577401171875,12.062255953125,9.64918561171875,12.096805953125Q9.73259731171875,12.131355953125,9.82114601171875,12.148970953125Q9.90969471171875,12.166583953125,9.99997901171875,12.166584953125Q10.09026241171875,12.166583953125,10.17881111171875,12.148969953125Q10.26735971171875,12.131355953125,10.35077091171875,12.096805953125Q10.43418221171875,12.062255953125,10.50925061171875,12.012095953125Q10.58431911171875,11.961938953125,10.64816001171875,11.898097953125Q10.71199991171875,11.834256953125,10.76215931171875,11.759189953125Q10.81231881171875,11.684120953125,10.84686851171875,11.600709953125Q10.88141821171875,11.517298953125,10.89903161171875,11.428749953125Q10.91664501171875,11.340200953125,10.91664601171875,11.249917953125Z"
        fill-rule="evenodd" fill="currentColor" fill-opacity="1"/>
    </g>
  </g>
</svg>