<svg xmlns="http://www.w3.org/2000/svg" fill="none" version="1.1" width="20" height="20" viewBox="0 0 20 20">
  <defs>
    <clipPath id="master_svg0_10_18346">
      <rect x="0" y="0" width="20" height="20" rx="0"/>
    </clipPath>
  </defs>
  <g clip-path="url(#master_svg0_10_18346)">
    <g>
      <path
        d="M3.1706581529296876,3.5774833879974364C2.5576891929296877,3.7714178879974365,2.5500674229296876,4.661093487997436,3.1596183529296873,4.866107687997436L9.489375152929687,6.995039687997436C9.821166952929687,7.106631987997437,10.178892152929688,7.106631987997437,10.510684952929687,6.995036887997436L16.840364752929688,4.866121087997437C17.449912752929688,4.6611058879974365,17.442291752929687,3.7714326879974367,16.829324752929686,3.5774972879974367L10.483060852929688,1.5696132179974365C10.168299652929688,1.4700267309974364,9.831706952929688,1.4700257779974366,9.516946352929686,1.5696117879974365L3.1706581529296876,3.5774833879974364ZM11.928214752929687,17.971542587997437C11.388982752929687,18.149818587997437,10.833297752929688,17.748267587997436,10.833297752929688,17.180326587997435L10.833297752929688,8.935719287997436C10.833297752929688,8.576275087997438,11.063770252929688,8.257336387997437,11.405046452929687,8.144506187997436L17.300114752929687,6.195526387997437C17.839347752929687,6.0172493879974365,18.39503075292969,6.418800087997437,18.39503075292969,6.986738887997436L18.39503075292969,15.231346587997436C18.39503075292969,15.590791587997437,18.164558752929686,15.909730587997437,17.823281752929688,16.022559587997435L11.928214752929687,17.971542587997437ZM1.6666717529296875,15.232611587997436C1.6666717529296875,15.591302587997436,1.8961968429296876,15.909751587997437,2.2364819629296875,16.023180587997437L8.069815152929689,17.967624587997438C8.609424552929688,18.147494587997436,9.166671752929688,17.745855587997436,9.166671752929688,17.177055587997437L9.166672252929686,8.933876787997438C9.166672252929686,8.575184587997438,8.937147652929688,8.256735587997436,8.596862352929687,8.143307487997436L2.7635281529296876,6.198862787997436C2.2239188529296876,6.018993187997436,1.6666717529296875,6.420633987997436,1.6666717529296875,6.989432587997436L1.6666717529296875,15.232611587997436Z"
        fill-rule="evenodd" fill="currentColor" fill-opacity="1"
      />
    </g>
  </g>
</svg>