<svg xmlns="http://www.w3.org/2000/svg" xmlns:xlink="http://www.w3.org/1999/xlink" fill="none" version="1.1" width="20"
     height="20" viewBox="0 0 20 20">
  <defs>
    <clipPath id="master_svg0_10_18273">
      <rect x="0" y="0" width="20" height="20" rx="0"/>
    </clipPath>
  </defs>
  <g clip-path="url(#master_svg0_10_18273)">
    <path
      d="M24.597836482128905,18.43750452039337L20.431170082128908,18.43750452039337C19.510695482128906,18.43750452039337,18.764503482128905,17.69131152039337,18.764503482128905,16.77083752039337L18.764503482128905,12.604171520393372C18.764503482128905,11.683697520393372,19.510695482128906,10.937504920393371,20.431170082128908,10.937504920393371L24.597836482128905,10.937504920393371C25.518310982128906,10.937504920393371,26.264503482128905,11.683697520393372,26.264503482128905,12.604171520393372L26.264503482128905,16.77083752039337C26.264503482128905,17.69131152039337,25.518310982128906,18.43750452039337,24.597836482128905,18.43750452039337ZM33.76446218212891,18.43750452039337L29.597796182128906,18.43750452039337C28.677321182128907,18.43750452039337,27.931129482128906,17.69131152039337,27.931129482128906,16.77083752039337L27.931129482128906,12.604171520393372C27.931129482128906,11.683697520393372,28.677321182128907,10.937504920393371,29.597796182128906,10.937504920393371L33.76446218212891,10.937504920393371C34.68493618212891,10.937504920393371,35.431129182128906,11.683697520393372,35.431129182128906,12.604171520393372L35.431129182128906,16.77083752039337C35.431129182128906,17.69131152039337,34.68493618212891,18.43750452039337,33.76446218212891,18.43750452039337ZM26.067603082128905,6.473089320393371L23.675192382128905,8.86550012039337C23.024318682128907,9.516373720393371,21.969043682128905,9.516373720393371,21.318170082128905,8.86550012039337L18.925759552128905,6.473089320393371C18.274885652128905,5.8222157203933715,18.274885652128905,4.766940720393372,18.925759312128907,4.116067020393372L21.318169882128906,1.7236567703933716C21.969043682128905,1.0727826403933716,23.024318682128907,1.0727826403933716,23.675192882128904,1.7236567703933716L26.067603082128905,4.116067020393372C26.71847728212891,4.766940720393372,26.71847728212891,5.8222157203933715,26.067603082128905,6.473089320393371ZM33.76446218212891,9.270817920393371L29.597796182128906,9.270817920393371C28.677321182128907,9.270817920393371,27.931129482128906,8.524625920393373,27.931129482128906,7.604151320393371L27.931129482128906,3.4374848203933714C27.931129482128906,2.5170103203933714,28.677321182128907,1.7708178803933716,29.597796182128906,1.7708178803933716L33.76446218212891,1.7708178803933716C34.68493618212891,1.7708178803933716,35.431129182128906,2.5170103203933714,35.431129182128906,3.4374848203933714L35.431129182128906,7.604151320393371C35.431129182128906,8.524625920393373,34.68493618212891,9.270817920393371,33.76446218212891,9.270817920393371Z"
      fill="currentColor" fill-opacity="1" transform="matrix(0,1,-1,0,19.673077702522278,-17.202120661735535)"/>
  </g>
</svg>