<svg xmlns="http://www.w3.org/2000/svg" xmlns:xlink="http://www.w3.org/1999/xlink" fill="none" version="1.1" width="20"
     height="20" viewBox="0 0 20 20">
  <defs>
    <clipPath id="master_svg0_10_18286">
      <rect x="0" y="0" width="20" height="20" rx="0"/>
    </clipPath>
  </defs>
  <g clip-path="url(#master_svg0_10_18286)">
    <path
      d="M2.82287511171875,6.666748046875C2.2540771317187502,6.666748046875,1.85243606171875,6.109500446875,2.03230581171875,5.569891446874999L2.76354341171875,3.376178646875C3.10382841171875,2.355323136875,4.0591757117187495,1.666748046875,5.13525171171875,1.666748046875L14.86478901171875,1.666748046875C15.94086601171875,1.666748046875,16.89621301171875,2.355323136875,17.23649801171875,3.376178646875L17.96773301171875,5.569891446874999C18.14760401171875,6.109500446875,17.74596201171875,6.666748046875,17.17716501171875,6.666748046875L2.82287511171875,6.666748046875ZM1.66668701171875,10.833414046875C1.66668701171875,11.753889046875,2.41287911171875,12.500081046875,3.33335401171875,12.500081046875L16.66668701171875,12.500081046875C17.58716201171875,12.500081046875,18.33335301171875,11.753889046875,18.33335301171875,10.833414046875L18.33335301171875,9.166748046875C18.33335301171875,8.246273546874999,17.58716201171875,7.500081046875,16.66668701171875,7.500081046875L3.33335391171875,7.500081046875C2.41287911171875,7.500081046875,1.66668701171875,8.246273546874999,1.66668701171875,9.166748046875L1.66668701171875,10.833414046875ZM6.66668701171875,10.000081046875C6.66668701171875,9.539843546875,7.03978301171875,9.166748046875,7.50002001171875,9.166748046875L12.50002001171875,9.166748046875C12.96025801171875,9.166748046875,13.33335301171875,9.539843546875,13.33335301171875,10.000081046875C13.33335301171875,10.460318546875,12.96025801171875,10.833414046875,12.50002001171875,10.833414046875L7.50002001171875,10.833414046875C7.03978301171875,10.833414046875,6.66668701171875,10.460318546875,6.66668701171875,10.000081046875ZM1.66668701171875,16.666748046875C1.66668701171875,17.587221046875,2.41287911171875,18.333414046875,3.33335401171875,18.333414046875L16.66668701171875,18.333414046875C17.58716201171875,18.333414046875,18.33335301171875,17.587221046875,18.33335301171875,16.666748046875L18.33335301171875,15.000081046875C18.33335301171875,14.079607046875,17.58716201171875,13.333414046875,16.66668701171875,13.333414046875L3.33335391171875,13.333414046875C2.41287911171875,13.333414046875,1.66668701171875,14.079607046875,1.66668701171875,15.000081046875L1.66668701171875,16.666748046875ZM6.66668701171875,15.833414046875C6.66668701171875,15.373177046875,7.03978301171875,15.000081046875,7.50002001171875,15.000081046875L12.50002001171875,15.000081046875C12.96025801171875,15.000081046875,13.33335301171875,15.373177046875,13.33335301171875,15.833414046875C13.33335301171875,16.293652046875,12.96025801171875,16.666748046875,12.50002001171875,16.666748046875L7.50002001171875,16.666748046875C7.03978301171875,16.666748046875,6.66668701171875,16.293652046875,6.66668701171875,15.833414046875Z"
      fill-rule="evenodd" fill="currentColor" fill-opacity="1"/>
  </g>
</svg>