<svg xmlns="http://www.w3.org/2000/svg" xmlns:xlink="http://www.w3.org/1999/xlink" fill="none" version="1.1" width="20"
     height="20" viewBox="0 0 20 20">
  <defs>
    <clipPath id="master_svg0_16_02927">
      <rect x="0" y="0" width="20" height="20" rx="0"/>
    </clipPath>
  </defs>
  <g clip-path="url(#master_svg0_16_02927)">
    <path
      d="M15,10Q15,10.122743100000001,14.9939785,10.2453384Q14.9879551,10.3679338,14.9759245,10.4900861Q14.9638929,10.6122379,14.9458818,10.7336521Q14.9278717,10.8550663,14.9039259,10.9754515Q14.8799801,11.0958357,14.8501549,11.214900499999999Q14.8203316,11.3339653,14.7847013,11.4514232Q14.7490711,11.568881000000001,14.7077198,11.6844492Q14.6663685,11.8000164,14.6193972,11.9134164Q14.5724258,12.026816400000001,14.5199461,12.137774499999999Q14.4674664,12.248733,14.409606,12.3569832Q14.3517456,12.465232799999999,14.2886419,12.5705128Q14.2255392,12.675792699999999,14.1573467,12.7778502Q14.0891542,12.8799076,14.016037,12.978495599999999Q13.9429188,13.0770836,13.8650522,13.1719656Q13.7871847,13.2668476,13.7047548,13.3577938Q13.6223259,13.448741,13.5355339,13.5355339Q13.448741,13.6223259,13.3577948,13.7047558Q13.2668476,13.7871857,13.1719666,13.8650532Q13.0770845,13.9429207,12.978496100000001,14.0160379Q12.8799076,14.0891552,12.7778502,14.1573477Q12.675792699999999,14.2255402,12.5705128,14.2886429Q12.465232799999999,14.3517456,12.3569832,14.409606Q12.248733,14.4674664,12.1377749,14.5199461Q12.026816400000001,14.5724258,11.9134169,14.6193972Q11.8000169,14.6663685,11.6844487,14.7077198Q11.568881000000001,14.7490711,11.4514232,14.7847013Q11.3339653,14.8203316,11.214900499999999,14.8501568Q11.0958357,14.8799801,10.9754515,14.9039268Q10.8550663,14.9278727,10.7336521,14.9458828Q10.6122379,14.9638939,10.4900861,14.9759245Q10.3679338,14.9879551,10.2453384,14.9939775Q10.122743100000001,15,10,15Q9.877256899999999,15,9.7546616,14.9939775Q9.6320662,14.9879551,9.5099144,14.9759245Q9.3877621,14.9638929,9.2663474,14.9458818Q9.1449327,14.9278717,9.0245481,14.9039259Q8.9041634,14.8799801,8.7850986,14.8501549Q8.6660342,14.8203316,8.5485766,14.7847013Q8.4311185,14.7490711,8.3155506,14.7077198Q8.1999824,14.6663685,8.086582700000001,14.6193972Q7.973182700000001,14.5724258,7.862224599999999,14.5199461Q7.751266,14.4674664,7.6430163,14.409606Q7.5347667000000005,14.3517456,7.429486300000001,14.2886419Q7.3242059,14.2255392,7.2221487,14.1573467Q7.1200914,14.0891542,7.0215032,14.016037Q6.9229152,13.9429188,6.8280334,13.8650522Q6.7331517000000005,13.7871847,6.642205,13.7047548Q6.5512584,13.6223259,6.464466,13.5355339Q6.3776735,13.448741,6.2952442,13.3577948Q6.212815,13.2668476,6.1349477,13.1719666Q6.0570803,13.0770845,5.98396218,12.978496100000001Q5.9108442100000005,12.8799076,5.84265178,12.7778502Q5.77445936,12.675792699999999,5.71135676,12.5705128Q5.64825428,12.465232799999999,5.5903936,12.3569832Q5.53253293,12.248733,5.48005345,12.1377749Q5.42757404,12.026816400000001,5.38060227,11.9134169Q5.3336305,11.8000169,5.2922796,11.6844487Q5.25092873,11.568881000000001,5.2152983,11.4514232Q5.17966786,11.3339653,5.14984372,11.214900499999999Q5.12001957,11.0958357,5.096073583,10.9754515Q5.072127596,10.8550663,5.054117441,10.7336521Q5.036107291,10.6122379,5.024076365,10.4900861Q5.012045437,10.3679338,5.0060227183,10.2453384Q5,10.122743100000001,5,10Q5,9.877256899999999,5.0060227183,9.7546616Q5.012045437,9.6320662,5.024076365,9.5099144Q5.036107291,9.3877621,5.054117441,9.2663474Q5.072127596,9.1449327,5.096073583,9.0245481Q5.12001957,8.9041634,5.14984371,8.7850986Q5.17966786,8.6660342,5.2152983,8.5485766Q5.25092873,8.4311185,5.29227963,8.3155506Q5.3336305,8.1999824,5.38060227,8.086582700000001Q5.42757404,7.973182700000001,5.48005345,7.862224599999999Q5.53253293,7.751266,5.5903936,7.6430163Q5.64825428,7.5347667000000005,5.71135688,7.429486300000001Q5.77445936,7.3242059,5.84265178,7.2221487Q5.9108442100000005,7.1200914,5.98396218,7.0215032Q6.0570803,6.9229152,6.1349477,6.8280334Q6.212815,6.7331517000000005,6.2952442,6.642205Q6.3776735,6.5512584,6.464466,6.464466Q6.5512584,6.3776735,6.642205,6.2952442Q6.7331518,6.212815,6.8280335999999995,6.1349477Q6.9229152,6.0570803,7.0215034,5.98396218Q7.1200914,5.9108442100000005,7.2221487,5.84265178Q7.3242059,5.77445936,7.429486300000001,5.71135676Q7.5347667000000005,5.64825428,7.6430163,5.5903936Q7.751266,5.53253293,7.862224100000001,5.48005345Q7.973182700000001,5.42757404,8.086582400000001,5.38060227Q8.1999822,5.3336305,8.3155503,5.2922796Q8.4311185,5.25092873,8.5485766,5.2152983Q8.6660345,5.17966786,8.785099,5.14984372Q8.9041638,5.12001957,9.0245485,5.096073583Q9.1449327,5.072127596,9.2663474,5.054117441Q9.3877621,5.036107291,9.5099144,5.024076365Q9.6320662,5.012045437,9.7546616,5.0060227183Q9.877256899999999,5,10,5Q10.122743100000001,5,10.2453384,5.0060227183Q10.3679338,5.012045437,10.4900861,5.024076365Q10.6122379,5.036107291,10.7336521,5.054117441Q10.8550663,5.072127596,10.9754515,5.096073583Q11.0958357,5.12001957,11.214900499999999,5.14984371Q11.3339653,5.17966786,11.4514232,5.2152983Q11.568881000000001,5.25092873,11.6844492,5.29227963Q11.8000164,5.3336305,11.9134164,5.38060227Q12.026816400000001,5.42757404,12.137774499999999,5.48005345Q12.248733,5.53253293,12.3569832,5.5903936Q12.465232799999999,5.64825428,12.5705128,5.71135688Q12.675792699999999,5.77445936,12.7778502,5.84265178Q12.8799076,5.9108442100000005,12.978495599999999,5.98396218Q13.0770836,6.0570803,13.1719656,6.1349477Q13.2668476,6.212815,13.3577938,6.2952442Q13.448741,6.3776735,13.5355339,6.464466Q13.6223259,6.5512584,13.7047558,6.642205Q13.7871857,6.7331518,13.8650532,6.8280335999999995Q13.9429207,6.9229152,14.0160379,7.0215034Q14.0891552,7.1200914,14.1573477,7.2221487Q14.2255402,7.3242059,14.2886429,7.429486300000001Q14.3517456,7.5347667000000005,14.409606,7.6430163Q14.4674664,7.751266,14.5199461,7.862224100000001Q14.5724258,7.973182700000001,14.6193972,8.086582400000001Q14.6663685,8.1999822,14.7077198,8.3155503Q14.7490711,8.4311185,14.7847013,8.5485766Q14.8203316,8.6660345,14.8501568,8.785099Q14.8799801,8.9041638,14.9039268,9.0245485Q14.9278727,9.1449327,14.9458828,9.2663474Q14.9638939,9.3877621,14.9759245,9.5099144Q14.9879551,9.6320662,14.9939785,9.7546616Q15,9.877256899999999,15,10Z"
      fill="currentColor" fill-opacity="1"/>
    <rect x="0.83331298828125" y="9.166748046875" width="3.3333332538604736" height="1.6666666269302368"
          rx="0.8333333134651184" fill="currentColor" fill-opacity="1"/>
    <rect x="15.83331298828125" y="9.166748046875" width="3.3333332538604736" height="1.6666666269302368"
          rx="0.8333333134651184" fill="currentColor" fill-opacity="1"/>
    <rect x="9.16668701171875" y="19.166748046875" width="3.3333332538604736" height="1.6666666269302368"
          rx="0.8333333134651184" fill="currentColor" fill-opacity="1"
          transform="matrix(0,-1,1,0,-10.00006103515625,28.33343505859375)"/>
    <rect x="9.16668701171875" y="4.166748046875" width="3.3333332538604736" height="1.6666666269302368"
          rx="0.8333333134651184" fill="currentColor" fill-opacity="1"
          transform="matrix(0,-1,1,0,4.99993896484375,13.33343505859375)"/>
    <path
      d="M18.33335301171875,10.000081046875C18.33335301171875,14.602454046875,14.60239301171875,18.333414046875,10.00002001171875,18.333414046875C5.39764711171875,18.333414046875,1.66668701171875,14.602454046875,1.66668701171875,10.000081046875C1.66668701171875,5.397708146875,5.39764711171875,1.666748046875,10.00002001171875,1.666748046875C14.60239301171875,1.666748046875,18.33335301171875,5.397708146875,18.33335301171875,10.000081046875ZM16.66668701171875,10.000081046875Q16.66668701171875,8.728457446875,16.19860901171875,7.546116846875Q15.69037701171875,6.262347746875,14.71406601171875,5.286036246875Q13.73775601171875,4.309726046874999,12.45398401171875,3.801492646875Q11.27164271171875,3.333414646875,10.00002001171875,3.333414646875Q8.72839641171875,3.333414646875,7.54605581171875,3.801492646875Q6.26228571171875,4.309725546875001,5.28597521171875,5.286036246875Q4.309664511718751,6.262347246875,3.80143161171875,7.546116846875Q3.33335361171875,8.728458446874999,3.33335361171875,10.000081046875Q3.33335361171875,11.271704646875,3.80143161171875,12.454045046875Q4.309665011718749,13.737817046875,5.28597521171875,14.714127046875Q6.26228711171875,15.690438046875,7.54605581171875,16.198670046875Q8.72839641171875,16.666748046875,10.00002001171875,16.666748046875Q11.27164461171875,16.666748046875,12.45398401171875,16.198670046875Q13.73775501171875,15.690438046875,14.71406601171875,14.714127046875Q15.69037701171875,13.737816046875,16.19860901171875,12.454045046875Q16.66668701171875,11.271704646875,16.66668701171875,10.000081046875Z"
      fill-rule="evenodd" fill="currentColor" fill-opacity="1"/>
  </g>
</svg>